<svg width="204" height="72" viewBox="0 0 204 72" fill="none" xmlns="http://www.w3.org/2000/svg">
<rect width="204" height="72" fill="#FAFAFA"/>
<g clip-path="url(#clip0_115_298)">
<mask id="mask0_115_298" style="mask-type:luminance" maskUnits="userSpaceOnUse" x="81" y="18" width="43" height="36">
<path d="M81.3439 53.668H123.776V18.2974H81.3439V53.668Z" fill="white"/>
</mask>
<g mask="url(#mask0_115_298)">
<path d="M121.664 41.8239C121.865 42.1131 121.783 42.4986 121.481 42.6805C121.481 42.6805 117.323 45.193 114.318 46.2628C111.323 47.3287 108.41 47.9365 105.895 48.1006C103.378 48.2642 100.465 48.8725 97.4706 49.9384C94.4653 51.0082 90.3074 53.5202 90.3074 53.5202C90.0062 53.7026 89.5947 53.615 89.3936 53.3258C89.3936 53.3258 87.3676 50.4144 86.5654 48.1603C85.7661 45.9139 85.4051 43.6959 85.4446 41.7508C85.4836 39.8061 85.1231 37.5876 84.3233 35.3412C83.5211 33.0876 81.4956 30.1757 81.4956 30.1757C81.294 29.8865 81.3763 29.501 81.678 29.3191C81.678 29.3191 85.8358 26.8071 88.8406 25.7373C91.8358 24.6709 94.7487 24.0631 97.2646 23.899C99.781 23.7349 102.694 23.1271 105.689 22.0612C108.694 20.9914 112.852 18.4793 112.852 18.4793C113.153 18.2974 113.564 18.385 113.766 18.6738C113.766 18.6738 115.792 21.5857 116.594 23.8393C117.393 26.0857 117.754 28.3042 117.715 30.2488C117.675 32.1935 118.036 34.4125 118.836 36.6584C119.638 38.9125 121.664 41.8239 121.664 41.8239Z" fill="#171717"/>
<path d="M93.0495 34.9778L89.522 34.9841L89.5269 37.5423C89.5273 37.9552 89.5827 38.2266 89.6929 38.3561C89.8031 38.486 90.0331 38.5505 90.383 38.55L90.458 38.5495L90.4585 38.8595L87.5904 38.8647L87.5899 38.5548H87.6698C88.0196 38.5539 88.2482 38.4899 88.3565 38.3609C88.4648 38.2329 88.5182 37.9605 88.5177 37.5438L88.5086 32.4278C88.5076 32.0149 88.4532 31.7444 88.3445 31.6164C88.2362 31.4884 88.0071 31.4244 87.6573 31.4254H87.5774L87.5769 31.1107L90.4446 31.1054L90.445 31.4201H90.37C90.0206 31.4211 89.7906 31.4855 89.6809 31.614C89.5711 31.7425 89.5167 32.013 89.5177 32.4259L89.5216 34.5996L93.0485 34.5933L93.0451 32.4196C93.0442 32.0067 92.9888 31.7363 92.8786 31.6082C92.7684 31.4802 92.5384 31.4162 92.1885 31.4172H92.114L92.1135 31.1025L94.9811 31.0972L94.9816 31.4119L94.9017 31.4124C94.5519 31.4129 94.3233 31.4774 94.215 31.6058C94.1072 31.7343 94.0533 32.0053 94.0543 32.4182L94.0634 37.5341C94.0639 37.9504 94.1183 38.2228 94.227 38.3508C94.3353 38.4788 94.5649 38.5423 94.9142 38.5418H94.9941L94.9951 38.8513L92.127 38.8566L92.1265 38.5467H92.2015C92.5514 38.5462 92.7809 38.4807 92.8907 38.3508C93.0004 38.2204 93.0548 37.949 93.0538 37.5356L93.0495 34.9778Z" fill="#FAFAFA"/>
<path d="M98.1029 37.8966C97.7873 38.2469 97.4427 38.4226 97.0697 38.4231C96.8464 38.4235 96.6525 38.3355 96.487 38.1593C96.3219 37.9832 96.2391 37.7748 96.2386 37.5352C96.2382 37.169 96.3585 36.8879 96.5996 36.693C96.8407 36.4976 97.3474 36.2777 98.1198 36.0333L98.4042 35.9428L98.4061 36.9418C98.4066 37.3485 98.3055 37.6666 98.1029 37.8966ZM98.8161 38.7147C98.985 38.9043 99.2093 38.9986 99.4889 38.9981C99.8118 38.9976 100.137 38.9057 100.462 38.7219L100.462 38.4269C100.342 38.4442 100.232 38.4524 100.132 38.4524C99.8161 38.4534 99.6039 38.3538 99.4975 38.154C99.3902 37.9543 99.3363 37.5535 99.3354 36.95L99.331 34.5819C99.3301 34.0626 99.2045 33.6863 98.9542 33.4534C98.704 33.2243 98.2974 33.1098 97.7348 33.1107C97.0553 33.1122 96.4874 33.2878 96.0322 33.6386C95.5693 33.9991 95.3387 34.3793 95.3397 34.7792V34.9288L96.4133 34.5823L96.4129 34.3321C96.4124 34.0694 96.4884 33.8725 96.6419 33.7426C96.7945 33.6122 97.0245 33.5467 97.331 33.5463C97.627 33.5458 97.8772 33.6204 98.0808 33.7695C98.2141 33.8629 98.3007 33.977 98.3411 34.1117C98.3811 34.2464 98.4018 34.4856 98.4023 34.8287L98.4037 35.6127L97.7194 35.8138C96.8306 36.0689 96.1934 36.3422 95.8075 36.6343C95.4215 36.9264 95.229 37.2806 95.23 37.6969C95.2305 38.0732 95.3522 38.3855 95.5962 38.6329C95.8397 38.8807 96.1448 39.0044 96.511 39.0039C96.8772 39.0029 97.2242 38.9077 97.5524 38.7171C97.8801 38.5265 98.19 38.2412 98.4826 37.861C98.5365 38.2407 98.6477 38.5251 98.8161 38.7147Z" fill="#FAFAFA"/>
<path d="M102.131 34.5721L102.136 37.5196C102.137 37.9364 102.193 38.2083 102.305 38.3363C102.417 38.4648 102.651 38.5283 103.007 38.5273H103.072L103.073 38.8372L100.28 38.842L100.279 38.5326L100.369 38.5321C100.712 38.5316 100.938 38.4672 101.046 38.3387C101.154 38.2102 101.207 37.9378 101.207 37.5215L101.203 35.2732C101.202 34.8136 101.168 34.5187 101.101 34.3892C101.035 34.2593 100.853 34.1313 100.556 34.0052L100.271 33.881V33.8059L102.128 33.1082L102.13 34.2622C102.529 33.8752 102.908 33.5851 103.266 33.3911C103.623 33.1972 103.959 33.1 104.272 33.0995C104.725 33.0985 105.1 33.253 105.396 33.562C105.7 33.8781 105.853 34.4542 105.854 35.2901L105.858 37.5134C105.859 37.9296 105.914 38.2015 106.024 38.33C106.135 38.458 106.366 38.5215 106.719 38.5211L106.789 38.5206L106.79 38.8305L104.002 38.8353L104.001 38.5259L104.081 38.5254C104.431 38.5249 104.66 38.4595 104.768 38.3295C104.876 38.1996 104.93 37.9282 104.929 37.5148L104.925 35.2713C104.924 34.7785 104.843 34.4224 104.681 34.203C104.519 33.983 104.255 33.8738 103.888 33.8743C103.622 33.8748 103.342 33.933 103.049 34.0485C102.756 34.1635 102.45 34.3382 102.131 34.5721Z" fill="#FAFAFA"/>
<path d="M108.27 33.9793C108.557 33.5943 108.911 33.4008 109.33 33.4003C109.67 33.3999 109.948 33.5375 110.165 33.8132C110.382 34.0895 110.492 34.4461 110.492 34.8821C110.493 35.1655 110.394 35.3445 110.196 35.4196C109.998 35.4951 109.526 35.5332 108.78 35.5346L107.745 35.5365C107.807 34.8835 107.982 34.3642 108.27 33.9793ZM109.864 38.3604C109.258 38.3614 108.749 38.1438 108.339 37.7064C107.928 37.269 107.723 36.7271 107.721 36.0813C107.721 36.038 107.723 35.9595 107.726 35.8464L111.553 35.8397L111.553 35.6795C111.551 34.8638 111.358 34.2276 110.972 33.7719C110.587 33.3166 110.047 33.089 109.355 33.0904C108.585 33.0919 107.945 33.3729 107.435 33.9331C106.925 34.4937 106.671 35.1968 106.672 36.0428C106.673 36.8989 106.941 37.6029 107.475 38.1549C108.009 38.7069 108.689 38.9822 109.515 38.9807C110.201 38.9793 110.909 38.7704 111.637 38.3522L111.636 37.8825C111.034 38.2001 110.443 38.3594 109.864 38.3604Z" fill="#FAFAFA"/>
<path d="M112.204 38.6011L112.082 37.1926L112.481 37.1916L112.497 37.2917C112.642 38.2075 113.112 38.6647 113.908 38.6632C114.251 38.6627 114.545 38.5545 114.792 38.3393C115.038 38.1238 115.16 37.8663 115.16 37.567C115.16 37.3802 115.096 37.2157 114.969 37.0723C114.842 36.9327 114.536 36.732 114.049 36.4693L113.574 36.2104C112.667 35.7161 112.213 35.1637 112.212 34.5545C112.211 34.1011 112.377 33.7431 112.71 33.4794C113.043 33.2157 113.493 33.0828 114.063 33.0819C114.546 33.0809 115.076 33.1853 115.652 33.3942L115.654 34.553L115.255 34.554L115.239 34.4592C115.216 34.2989 115.184 34.1618 115.144 34.0468C115.104 33.9322 115.046 33.8307 114.971 33.7426C114.896 33.6545 114.79 33.5737 114.653 33.5006C114.517 33.4279 114.315 33.3913 114.049 33.3918C113.769 33.3923 113.54 33.4736 113.362 33.6353C113.184 33.7975 113.095 34.0049 113.096 34.258C113.096 34.6276 113.448 35.0068 114.152 35.3952L114.677 35.6839C115.19 35.9664 115.546 36.2272 115.743 36.4664C115.936 36.7094 116.033 37.0054 116.034 37.3552C116.035 37.8417 115.841 38.2325 115.452 38.528C115.062 38.8235 114.548 38.9717 113.909 38.9726C113.236 38.9741 112.668 38.8499 112.204 38.6011Z" fill="#FAFAFA"/>
<path fill-rule="evenodd" clip-rule="evenodd" d="M117.195 20.6404C117.66 20.6404 118.057 20.2795 118.057 19.7852C118.057 19.2958 117.66 18.9344 117.195 18.9344C116.726 18.9344 116.328 19.2958 116.328 19.7852C116.328 20.2795 116.726 20.6404 117.195 20.6404ZM116.5 19.7852C116.5 19.3815 116.804 19.0769 117.195 19.0769C117.581 19.0769 117.885 19.3815 117.885 19.7852C117.885 20.1957 117.581 20.4984 117.195 20.4984C116.804 20.4984 116.5 20.1957 116.5 19.7852ZM117.014 19.8531H117.186L117.445 20.2795H117.612L117.332 19.8463C117.477 19.8281 117.587 19.7515 117.587 19.5754C117.587 19.3815 117.472 19.2958 117.24 19.2958H116.865V20.2795H117.014V19.8531ZM117.014 19.7265V19.4219H117.217C117.321 19.4219 117.431 19.4445 117.431 19.5663C117.431 19.7174 117.319 19.7265 117.192 19.7265H117.014Z" fill="#171717"/>
</g>
</g>
<defs>
<clipPath id="clip0_115_298">
<rect width="41.1588" height="36" fill="white" transform="translate(81 18)"/>
</clipPath>
</defs>
</svg>
