<svg width="204" height="72" viewBox="0 0 204 72" fill="none" xmlns="http://www.w3.org/2000/svg">
<rect width="204" height="72" fill="#FAFAFA"/>
<path d="M57 18V54H147V18H57ZM102.008 52.2C76.905 52.2 58.8 44.85 58.8 36C58.8 27.15 76.9163 19.8 102.008 19.8C127.095 19.8 145.2 27.15 145.2 36C145.2 44.85 127.11 52.2 102.008 52.2ZM101.164 29.4675H116.824V33.0825C116.438 32.9063 116.063 32.9063 115.676 32.9063H109.084V34.6313H115.418V37.3763H109.084V39.09H115.676C116.063 39.09 116.438 39.09 116.824 38.9025V42.5288H101.164C101.359 42.15 101.359 41.7863 101.359 41.4075V30.6C101.359 30.2213 101.359 29.8575 101.164 29.4675ZM74.6288 30.6V41.4038C74.6288 41.7825 74.6288 42.1463 74.8238 42.525H66C66.195 42.1463 66.195 41.7825 66.195 41.4038V30.6C66.195 30.2213 66.195 29.8575 66 29.4788H74.8238C74.6288 29.8575 74.6288 30.2213 74.6288 30.6ZM98.805 41.4038C99.09 41.805 99.3975 42.1838 99.7613 42.525H90.0188C90.0188 42.1463 89.6438 41.3775 89.2313 40.7738C88.8188 40.17 86.5875 36.8588 86.5875 36.8588V41.4038C86.5875 41.7825 86.5875 42.1463 86.7825 42.525H78.6675C78.8625 42.1463 78.8625 41.7825 78.8625 41.4038V30.6C78.8625 30.2213 78.8625 29.8575 78.6675 29.4788H86.7825C86.5875 29.8575 86.5875 30.2213 86.5875 30.6V35.3213C86.5875 35.3213 89.1788 32.0213 89.775 31.2525C90.225 30.675 90.78 29.8538 90.78 29.4788H99.2438C98.6625 29.8575 98.0175 30.5363 97.4888 31.1663L94.3913 34.8563C94.3913 34.8563 98.2875 40.6613 98.805 41.4038ZM138.353 30.135C138.353 29.9599 138.284 29.7918 138.161 29.6669C138.038 29.5421 137.871 29.4705 137.696 29.4675H136.909V31.5338H137.22V30.8025H137.67L138.083 31.5338H138.431L137.981 30.7388C138.092 30.6811 138.185 30.5945 138.25 30.4882C138.316 30.3819 138.351 30.2598 138.353 30.135ZM137.644 30.5138H137.216V29.7975H137.681C137.888 29.7975 138.03 29.9738 138.03 30.1762C138.03 30.375 137.85 30.525 137.644 30.5138ZM137.565 28.8H137.449C137.228 28.8034 137.01 28.8506 136.808 28.9388C136.606 29.0271 136.423 29.1546 136.271 29.3141C136.118 29.4736 135.999 29.6617 135.92 29.8677C135.841 30.0736 135.804 30.2932 135.81 30.5138C135.81 30.54 135.81 30.5775 135.799 30.6C135.817 31.0616 136.018 31.497 136.357 31.8111C136.695 32.1253 137.145 32.2925 137.606 32.2763C137.835 32.2733 138.06 32.2254 138.27 32.1352C138.48 32.0451 138.671 31.9144 138.83 31.7507C138.99 31.5871 139.115 31.3936 139.2 31.1814C139.285 30.9691 139.327 30.7423 139.324 30.5138V30.45C139.317 30.2261 139.266 30.0057 139.174 29.8015C139.082 29.5972 138.95 29.4132 138.787 29.2599C138.624 29.1066 138.431 28.9871 138.222 28.9082C138.012 28.8293 137.789 28.7925 137.565 28.8ZM137.565 31.8863C137.197 31.8893 136.843 31.7467 136.579 31.4896C136.316 31.2325 136.165 30.8818 136.159 30.5138V30.4125C136.167 30.2366 136.211 30.0642 136.286 29.905C136.361 29.7459 136.467 29.6032 136.598 29.4851C136.729 29.367 136.881 29.2759 137.047 29.2169C137.213 29.1579 137.389 29.1322 137.565 29.1412C138.338 29.1412 138.971 29.76 138.971 30.5138C138.971 31.2675 138.341 31.8863 137.565 31.8863ZM134.276 30.615C134.134 30.2363 133.928 29.8725 134.033 29.4938H122.719C122.771 29.8725 122.629 30.2363 122.486 30.615L118.474 41.4188C118.349 41.8295 118.142 42.2109 117.866 42.54H124.56C124.508 42.1613 124.65 41.7975 124.778 41.4188C124.905 41.04 125.048 40.6763 125.048 40.6763L125.126 40.4738H130.016L130.095 40.6613C130.275 41.1038 130.406 41.4038 130.406 41.4038C130.56 41.7825 130.703 42.1463 130.665 42.525H139.151C138.865 42.1991 138.649 41.8173 138.518 41.4038C137.112 37.8043 135.698 34.2081 134.276 30.615ZM126.15 37.7138C126.731 36.1388 127.234 34.8188 127.271 34.6913C127.376 34.4138 127.451 34.125 127.504 33.8363C127.568 34.125 127.658 34.4138 127.763 34.6913L128.948 37.7138H126.15Z" fill="#171717"/>
</svg>
