<svg width="204" height="72" viewBox="0 0 204 72" fill="none" xmlns="http://www.w3.org/2000/svg">
<rect width="204" height="72" fill="#FAFAFA"/>
<path d="M80.6182 30.285C77.8092 36.7766 70.7982 42.7961 66.0063 42.8905C64.7552 42.9141 64.5191 42.8433 64.0234 42.3712C63.7165 42.0643 63.3388 41.4506 63.2208 40.9548L62.9847 40.0814L61.9933 40.8132C59.8452 42.3476 57.0125 43.2682 55.9266 42.8197C54.6047 42.2531 54.4395 40.4119 55.4073 37.4612C55.7614 36.3989 56.0447 35.4783 56.0447 35.3839C56.0447 35.2894 55.6906 35.3131 55.2657 35.4075C54.2034 35.6671 51.9609 35.4311 50.757 34.8882C50.0016 34.5577 49.8599 34.4396 50.1196 34.2744C50.2849 34.1564 50.757 34.0856 51.1819 34.0856C52.2441 34.0856 54.1798 33.5426 55.3837 32.9289C57.0833 32.0555 58.476 30.6391 60.1993 27.9245L61.8281 25.375H63.7165C64.7552 25.375 65.605 25.4222 65.605 25.5167C65.605 25.6111 64.9204 26.815 64.1414 28.2313C60.4825 34.6049 58.7593 38.972 59.7271 39.326C60.2701 39.5385 61.474 38.8067 62.9611 37.4376C64.2122 36.2573 64.6135 35.6435 67.1866 30.828L70.0193 25.5167L71.9549 25.4695C73.4657 25.4222 73.867 25.4695 73.7962 25.6819C73.749 25.8472 72.3326 28.491 70.6802 31.5833C68.2488 36.1629 67.6823 37.3668 67.6823 38.0749C67.6823 38.5234 67.8003 39.0428 67.9183 39.1844C69.1931 40.4591 73.5365 36.5406 75.7791 32.1027C76.5817 30.4739 77.3843 27.7828 77.6439 25.6583C78.0924 22.0938 76.9121 19.568 74.6932 19.3792C74.0558 19.332 74.1267 19.1667 75.0709 18.6238C76.7469 17.6796 78.6354 17.8212 80.0045 18.9543C82.3651 20.8663 82.6011 25.6819 80.6182 30.285ZM152.687 34.1092C153.206 33.1649 152.71 32.2207 151.837 32.4804C150.987 32.74 151.058 33.5662 152.096 35.5963C152.899 37.2015 153.064 37.6736 153.064 38.6887C153.064 40.6716 152.214 41.7338 150.137 42.5128C148.91 42.9377 146.313 42.8905 145.274 42.3948C144.354 41.9699 143.551 41.1201 143.362 40.3175C143.292 40.0578 143.197 39.8218 143.15 39.8218C143.103 39.8218 142.56 40.2231 141.97 40.7188C139.987 42.2768 138.24 42.7961 137.461 42.0407C136.918 41.4978 137.201 40.4827 138.759 37.4376C139.515 35.9268 140.105 34.5813 140.058 34.416C139.892 34.0147 139.019 34.3452 137.768 35.2895C136.918 35.8796 136.493 36.517 135.124 39.1136L133.448 42.2059H131.796C130.71 42.2059 130.143 42.1351 130.143 41.9699C130.143 41.8282 130.45 41.2145 130.78 40.6007C131.135 39.987 131.371 39.4677 131.3 39.4677C131.229 39.4677 130.71 39.8454 130.143 40.3411C128.68 41.5922 126.767 42.6781 126.083 42.6781C125.446 42.6781 124.619 41.8282 124.619 41.1673C124.619 40.8368 124.407 40.9312 123.392 41.6158C122.023 42.56 120.795 42.8905 119.804 42.6544C118.812 42.3948 118.435 41.7102 118.458 40.0342V38.6179L116.829 39.987C114.351 42.1351 112.344 42.9377 111.66 42.1351C111.211 41.5686 111.589 40.2231 113.029 37.3432C114.658 34.1328 114.634 33.7787 112.887 34.7937C111.188 35.7852 111.211 35.738 109.417 39.1136L107.741 42.2531H105.994C105.003 42.2531 104.248 42.1823 104.248 42.0407C104.248 41.9227 105.05 40.3175 106.065 38.4762C107.694 35.4547 108.166 34.18 107.718 34.2036C107.505 34.2036 105.522 35.3839 104.979 35.8324C104.743 36.0448 103.799 37.5556 102.902 39.2316L101.25 42.2531H99.5737C98.653 42.2531 97.8976 42.2059 97.8976 42.1351C97.8976 42.0643 98.3462 41.1909 98.8891 40.1522C99.432 39.1136 100.683 36.871 101.627 35.1242L103.351 31.9374L105.074 31.8902C106.018 31.8666 106.797 31.9138 106.797 32.0083C106.797 32.1027 106.608 32.504 106.372 32.8817C106.136 33.2594 105.947 33.6134 105.947 33.6607C105.947 33.7079 106.703 33.3538 107.623 32.8817C109.771 31.7722 111.495 31.5361 111.896 32.2915C112.037 32.5512 112.085 33.0469 112.037 33.3774C111.99 33.7079 111.967 33.9911 112.014 33.9911C112.061 33.9911 112.557 33.7315 113.123 33.3774C115.342 32.0319 117.703 31.4889 118.293 32.1971C118.718 32.74 118.411 34.1092 117.254 36.4697C116.664 37.6972 116.216 38.6651 116.31 38.6651C116.499 38.6651 119.639 36.1393 121.385 34.5813C123.982 32.2915 126.366 31.3709 127.948 32.1027C128.349 32.2915 128.538 32.2915 128.727 32.1027C128.868 31.961 129.647 31.8666 130.615 31.8666H132.268L130.662 34.9118C129.152 37.8389 128.514 39.2552 128.821 39.2552C128.892 39.2552 129.813 38.6179 130.875 37.7917C132.881 36.2573 133.637 35.3839 134.793 33.1649L135.502 31.843H137.178C139.019 31.843 139.09 31.9138 138.405 33.0233L137.98 33.7551L139.963 32.8108C142.3 31.6778 143.551 31.5361 144.071 32.3151C144.519 33.0233 144.212 34.18 142.749 36.9891C142.064 38.2874 141.497 39.4441 141.45 39.5621C141.261 39.987 142.371 39.1608 143.48 38.0041C145.038 36.3753 146.502 35.7616 147.635 36.2101C147.895 36.3281 147.871 36.3989 147.446 36.753C146.832 37.2487 146.077 38.6179 146.077 39.2788C146.077 40.5063 147.588 41.8282 148.556 41.4742C149.783 41.0493 149.972 40.1522 149.264 38.1694C148.697 36.5642 148.697 34.6521 149.264 33.5426C150.066 31.9374 152.403 31.1584 153.938 31.9374C155.472 32.7164 154.811 34.5813 152.97 34.5813C152.545 34.5105 152.498 34.4396 152.687 34.1092ZM126.319 33.7315C125.587 33.6843 125.398 33.7787 124.407 34.7937C122.684 36.5406 121.503 39.3732 122.377 39.7273C122.896 39.9398 123.109 39.869 123.935 39.2788C125.068 38.4762 125.823 37.532 126.579 35.9976C127.428 34.3216 127.381 33.8023 126.319 33.7315ZM99.6917 35.5963C98.5822 37.65 96.9062 40.7424 95.962 42.4892C93.4834 47.0923 92.1378 49.0516 90.2022 51.0109C88.1249 53.0882 86.6613 53.8672 84.702 53.9852C83.9703 54.0324 83.0732 53.9616 82.6955 53.8436C81.3264 53.4187 80.3114 51.7663 80.5946 50.3735C80.7599 49.5237 81.4444 48.3906 81.9166 48.131C82.2706 47.9421 82.2942 48.013 82.2234 48.9808C82.1762 49.8542 82.2234 50.0903 82.6719 50.5388C84.0175 51.8843 86.7793 50.704 89.1635 47.7297C90.1077 46.573 92.3267 42.8669 92.728 41.8282C92.8696 41.4742 92.7988 41.4742 92.2323 41.8755C91.3589 42.4892 90.0369 42.8197 89.2815 42.6072C88.3609 42.3712 87.6764 41.2617 87.6764 40.0106V38.972L86.2364 40.0578C82.4831 42.9141 78.5409 43.4098 77.5023 41.1673C76.6997 39.4205 77.8328 36.3989 80.0281 34.416C83.5454 31.2293 88.4317 30.5683 88.3609 33.283C88.3137 35.5255 85.3866 37.9805 81.9166 38.7359C80.9723 38.9483 80.8779 38.9956 81.0667 39.3496C81.4444 40.0578 83.0732 39.8926 84.9145 38.972C86.1656 38.3582 87.0626 37.65 89.2579 35.4547C92.3503 32.4568 93.5778 31.6778 95.3482 31.6778C95.9148 31.6778 96.6702 31.843 97.0242 32.0319C97.638 32.3623 97.7088 32.3623 97.9449 32.0319C98.1573 31.725 98.5114 31.6778 99.9277 31.725L101.627 31.7722L99.6917 35.5963ZM81.3028 36.8474C81.4208 36.8474 81.8929 36.7058 82.4359 36.517C83.5926 36.1157 84.9617 34.959 84.9617 34.3216C84.9617 32.9997 82.79 33.6843 81.7513 35.3131C81.1376 36.2809 80.9723 36.8474 81.3028 36.8474ZM95.4899 33.7315C94.7817 33.6843 94.5928 33.7787 93.6014 34.7937C92.4211 36.0212 91.3353 37.8861 91.3353 38.8067C91.3353 39.987 92.2795 40.105 93.6014 39.1136C94.4512 38.4762 95.0886 37.6264 96.0328 35.9032C96.859 34.298 96.741 33.8259 95.4899 33.7315Z" fill="#171717"/>
</svg>
