<svg width="204" height="72" viewBox="0 0 204 72" fill="none" xmlns="http://www.w3.org/2000/svg">
<rect width="204" height="72" fill="#FAFAFA"/>
<path d="M27.3096 32.109C27.0914 31.9271 26.8005 31.709 26.5096 31.6362L26.0369 40.8726L28.3641 34.4726C28.5823 33.4908 28.0369 32.6908 27.3096 32.109Z" fill="#171717"/>
<path d="M23.4915 31.5272L24.8369 40.7272L26.146 31.5272C25.3824 31.2363 24.3642 31.1999 23.4915 31.5272Z" fill="#171717"/>
<path d="M22.3641 32.109C21.6369 32.7271 21.0914 33.5271 21.3096 34.4726L23.6369 40.8726L23.1641 31.6362C22.8732 31.709 22.5823 31.8908 22.3641 32.109Z" fill="#171717"/>
<path d="M17.7095 32.9816C19.2367 35.6725 20.8367 38.5453 22.364 41.1271C21.8186 38.8725 21.2731 35.1271 20.4731 34.0725C19.564 32.7998 17.7095 32.9816 17.7095 32.9816Z" fill="#171717"/>
<path d="M14.9822 34.3272L21.3095 41.5999L17.3822 33.0181C16.364 33.0544 15.4913 33.5635 14.9822 34.3272Z" fill="#171717"/>
<path d="M28.1825 36.2908L27.1279 41.2726C28.4734 38.9453 29.8188 36.6544 31.1279 34.3271C29.8916 34.3999 28.6188 34.8726 28.1825 36.2908Z" fill="#171717"/>
<path d="M31.4915 34.3271L28.146 41.709L34.0005 35.3453C33.346 34.6544 32.4733 34.3271 31.4915 34.3271Z" fill="#171717"/>
<path d="M14.1459 37.5997C16.2186 39.1633 18.255 40.7997 20.3277 42.3633L14.7641 34.5452C14.255 35.4543 14.1095 36.4724 14.1459 37.5997Z" fill="#171717"/>
<path d="M34.7275 36.2544C34.6184 35.9999 34.4729 35.7817 34.2547 35.5999L29.2002 42.4726C31.2002 40.9817 33.1275 39.4544 35.0547 37.9635C35.0911 37.3453 35.0184 36.7635 34.7275 36.2544Z" fill="#171717"/>
<path d="M14.146 40.7998L19.5278 43.2725C17.746 41.4907 15.9278 39.7816 14.146 38.0361V40.7998Z" fill="#171717"/>
<path d="M35.0912 40.9817V38.4727L30.0002 43.3817C31.7457 42.5454 33.3457 41.7817 35.0912 40.9817Z" fill="#171717"/>
<path d="M14.146 43.2361C15.7824 43.5997 17.5278 44.0361 18.9824 44.3633L14.146 41.1633V43.2361Z" fill="#171717"/>
<path d="M35.0914 43.3816V41.4543C33.5641 42.3998 32.0005 43.418 30.5823 44.3998L35.0914 43.3816Z" fill="#171717"/>
<path d="M14.146 45.6362H18.8733L14.146 43.6362V45.6362Z" fill="#171717"/>
<path d="M35.0912 45.6363V43.8181C33.5275 44.4727 32.1821 45.0181 30.7275 45.6363H35.0912Z" fill="#171717"/>
<path d="M33.455 31.8545C33.4914 29.0181 29.3459 29.0181 29.4187 31.8181C29.3823 34.4363 33.5641 34.5818 33.455 31.8545Z" fill="#171717"/>
<path d="M19.9278 30.3998C20.0732 27.5634 15.6369 27.6725 15.8187 30.3998C15.6732 33.2362 20.1823 33.2725 19.9278 30.3998Z" fill="#171717"/>
<path d="M24.8367 30.9453C26.4731 30.9816 27.1276 29.7816 27.164 28.6544C27.2367 26.9089 26.1458 26.1816 24.8367 26.1816C23.5276 26.1816 22.4731 26.9453 22.5458 28.6544C22.5821 29.6362 22.9822 30.9089 24.8367 30.9453Z" fill="#171717"/>
<path d="M59.6733 34.4727H61.6006V45.5272H59.6733V34.4727Z" fill="#171717"/>
<path d="M52.8732 34.4727L49.6005 43.8545L46.4005 39.8545L50.655 34.4727H48.4368L44.5095 39.709V34.4727H42.5823V45.5272H44.5095V40.0727L48.5823 45.5272H49.0186H50.9095L51.9277 42.3272H56.0005L57.055 45.5272H59.055L55.2005 34.4727H52.8732ZM52.4005 40.7999L53.8914 36.2181H53.9277L55.455 40.7999H52.4005Z" fill="#171717"/>
<path d="M124.073 42.4727L122.146 34.4727H118.764V45.5272H120.655V36.109L123.091 45.5272H125.019C125.055 45.5272 127.455 36.109 127.455 36.109V45.5272H129.346V34.4727H126.037L124.073 42.4727Z" fill="#171717"/>
<path d="M134.182 34.4727L130.328 45.5636H132.219L133.237 42.3636H137.346L138.437 45.5636H140.437L136.582 34.4727H134.182ZM133.746 40.7999L135.237 36.2181H135.273L136.837 40.7999H133.746Z" fill="#171717"/>
<path d="M148.255 43.0181L143.819 34.4727H141.273V45.5272H143.091V37.1999L147.455 45.5272H150.073V34.4727H148.219V43.0181" fill="#171717"/>
<path d="M184.728 43.9272H180.146V40.7999H183.528V39.1999H180.146V36.0727C180.582 36.0727 184.328 36.0727 184.328 36.0727V34.4727C183.201 34.4727 178.219 34.4727 178.219 34.4727V45.5636H184.691L184.728 43.9272Z" fill="#171717"/>
<path d="M167.164 34.4363H166.801V43.0908L162.364 34.4726H159.819V43.9272H153.964V40.7999H157.346V39.1999H153.964V36.0726C154.401 36.0726 158.146 36.0726 158.146 36.0726V34.4726C157.019 34.4726 152.073 34.4726 152.073 34.4726V45.5636H161.491H161.637V37.0908L166.001 45.5272H168.619V36.1454H172.001V45.5636H173.928V36.1454H177.237V34.4726H167.164" fill="#171717"/>
<path d="M116 39.9636C116.619 39.4545 117.055 38.6181 117.055 37.5999C117.055 36.5817 116.619 35.7817 116 35.2727C115.309 34.6908 114.364 34.4727 112.764 34.4727H109.528V39.1636V43.9636H103.637V40.8363H107.019V39.2363H103.637V36.109C104.073 36.109 107.819 36.109 107.819 36.109V34.509C106.691 34.509 101.709 34.509 101.709 34.509V45.5999H111.455V40.8363H112.4C113.273 42.2181 115.164 45.5636 115.164 45.5636H117.455L114.473 40.6908C115.128 40.5454 115.6 40.2908 116 39.9636ZM111.491 39.1999V36.0727H113.128C114.582 36.0727 115.164 36.6545 115.164 37.5999C115.164 38.6545 114.582 39.1636 113.128 39.1636H111.491V39.1999Z" fill="#171717"/>
<path d="M85.6005 39.9636C86.2187 39.4545 86.655 38.6181 86.655 37.5999C86.655 36.5817 86.2187 35.7817 85.6005 35.2727C84.9459 34.6908 83.9641 34.4727 82.3641 34.4727H79.1278V39.1636V43.9636H73.2368V40.8363H76.6187V39.2363H73.2368V36.109C73.6732 36.109 77.4187 36.109 77.4187 36.109V34.509C76.2914 34.509 71.3096 34.509 71.3096 34.509V45.5999H81.055V40.8363H82.0005C82.8732 42.2181 84.7641 45.5636 84.7641 45.5636H87.055L84.0732 40.6908C84.7641 40.5454 85.2368 40.2908 85.6005 39.9636ZM81.0914 39.1999V36.0727H82.7277C84.1823 36.0727 84.7641 36.6545 84.7641 37.5999C84.7641 38.6545 84.1823 39.1636 82.7277 39.1636H81.0914V39.1999Z" fill="#171717"/>
<path d="M99.5277 35.309C98.8368 34.7272 97.8913 34.4727 96.2913 34.4727H93.0549V45.5636H94.9822V40.9817H96.2913C97.8913 40.9817 98.8368 40.6908 99.4913 40.109C100.109 39.5999 100.546 38.7272 100.546 37.709C100.546 36.6908 100.109 35.8181 99.5277 35.309ZM96.6186 39.3454H94.9822V36.0727H96.6186C98.0731 36.0727 98.6549 36.7272 98.6549 37.6727C98.6549 38.6908 98.0004 39.3454 96.6186 39.3454Z" fill="#171717"/>
<path d="M67.2367 39.0908C65.7094 38.5453 65.0185 38.109 65.0185 37.2362C65.0185 36.5817 65.7094 35.818 67.0185 35.818C68.0004 35.818 68.9458 36.1453 69.4185 36.3999V34.7999C68.9094 34.5453 68.0004 34.2908 67.0549 34.2908C64.6549 34.2908 63.0185 35.6362 63.0185 37.418C63.0185 39.018 64.2549 39.9999 66.1094 40.618C67.564 41.1271 68.1822 41.6362 68.1822 42.509C68.1822 43.4544 67.3822 44.109 66.0367 44.109C64.9822 44.109 63.6731 43.7453 62.9822 43.309V45.018C63.6367 45.3817 64.8004 45.6726 65.8913 45.6726C68.764 45.6726 70.1458 44.1453 70.1458 42.3635C70.1822 40.7271 69.164 39.7817 67.2367 39.0908Z" fill="#171717"/>
<path d="M186.473 43.5634C186.473 42.5088 187.273 41.7088 188.328 41.7088C189.346 41.7088 190.146 42.5088 190.146 43.5634C190.146 44.6543 189.346 45.4179 188.328 45.4179C187.31 45.4543 186.473 44.6543 186.473 43.5634ZM188.328 45.8179C189.564 45.8179 190.619 44.8725 190.619 43.5634C190.619 42.2907 189.564 41.3088 188.328 41.3088C187.091 41.3088 186.037 42.2543 186.037 43.5634C186.037 44.8725 187.091 45.8179 188.328 45.8179ZM187.855 43.7452H188.291L188.982 44.8725H189.419L188.691 43.7452C189.091 43.7088 189.382 43.4907 189.382 43.0179C189.382 42.5088 189.091 42.2907 188.473 42.2907H187.491V44.8725H187.891V43.7452H187.855ZM187.855 43.4179V42.6179H188.401C188.691 42.6179 188.982 42.6907 188.982 42.9816C188.982 43.3816 188.691 43.4179 188.364 43.4179H187.855Z" fill="#171717"/>
</svg>
