<svg width="204" height="72" viewBox="0 0 204 72" fill="none" xmlns="http://www.w3.org/2000/svg">
<rect width="204" height="72" fill="#FAFAFA"/>
<g clip-path="url(#clip0_115_363)">
<path d="M50.8552 38.8083H56.687V49.3504H45.3599L50.8552 38.8083Z" fill="#171717"/>
<path d="M56.1717 27.4812L62.07 39.1448L56.6868 49.3504L47.042 32.7522L56.1717 27.4812Z" fill="#171717"/>
<path d="M70.8177 27.4812L63.2476 36.1253V18.8372L70.8177 27.4812Z" fill="#171717"/>
<path d="M50.799 22.2102H63.3037V32.7523H47.042L50.799 22.2102Z" fill="#171717"/>
<path d="M92.3607 30.0609C92.3186 29.9321 92.2632 29.8168 92.1944 29.7149C92.1269 29.6116 92.0459 29.5237 91.9516 29.451C91.8586 29.3784 91.7527 29.3229 91.6343 29.2848C91.5158 29.2466 91.3858 29.2274 91.2442 29.2274C91.0123 29.2274 90.8015 29.2873 90.6115 29.407C90.4216 29.5269 90.2707 29.7033 90.1585 29.9366C90.0464 30.1699 89.9903 30.456 89.9903 30.7949C89.9903 31.1339 90.0469 31.42 90.1604 31.6533C90.2738 31.8864 90.4273 32.063 90.6211 32.1827C90.8148 32.3026 91.0327 32.3625 91.2749 32.3625C91.4992 32.3625 91.6967 32.3147 91.8675 32.2191C92.0395 32.1223 92.1733 31.9859 92.269 31.8101C92.3657 31.6329 92.4142 31.4245 92.4142 31.1849L92.5595 31.2154H91.382V30.7949H92.873V31.2154C92.873 31.5379 92.8041 31.8183 92.6665 32.0566C92.5301 32.2949 92.3415 32.4797 92.1007 32.611C91.8611 32.741 91.5858 32.806 91.2749 32.806C90.9282 32.806 90.6236 32.7244 90.3611 32.5612C90.0999 32.3982 89.896 32.1663 89.7494 31.8655C89.6041 31.5647 89.5315 31.2078 89.5315 30.7949C89.5315 30.4852 89.5729 30.2068 89.6558 29.9596C89.7399 29.7111 89.8583 29.4995 90.0113 29.3249C90.1642 29.1503 90.3451 29.0165 90.5542 28.9234C90.7632 28.8304 90.9932 28.7839 91.2442 28.7839C91.4507 28.7839 91.6432 28.8151 91.8216 28.8776C92.0012 28.9387 92.1612 29.0261 92.3014 29.1394C92.4429 29.2516 92.5608 29.3861 92.6551 29.5429C92.7494 29.6983 92.8143 29.871 92.8501 30.0609H92.3607ZM94.559 32.7525H94.062L95.4995 28.8374H95.9889L97.4265 32.7525H96.9294L95.7595 29.4568H95.729L94.559 32.7525ZM94.7425 31.2232H96.746V31.6437H94.7425V31.2232ZM98.8707 28.8374H99.4365L100.767 32.0872H100.813L102.143 28.8374H102.709V32.7525H102.266V29.7779H102.227L101.004 32.7525H100.576L99.3524 29.7779H99.3142V32.7525H98.8707V28.8374ZM104.494 32.7525V28.8374H106.857V29.258H104.968V30.5808H106.735V31.0014H104.968V32.3319H106.888V32.7525H104.494ZM108.546 32.7525V28.8374H109.869C110.176 28.8374 110.427 28.8928 110.622 29.0037C110.818 29.1133 110.963 29.2618 111.058 29.4491C111.152 29.6365 111.199 29.8455 111.199 30.0761C111.199 30.3068 111.152 30.5164 111.058 30.7051C110.965 30.8937 110.821 31.0441 110.626 31.1562C110.431 31.2672 110.181 31.3226 109.876 31.3226H108.928V30.902H109.861C110.071 30.902 110.24 30.8657 110.368 30.793C110.495 30.7204 110.588 30.6223 110.645 30.4986C110.704 30.3738 110.733 30.2329 110.733 30.0761C110.733 29.9194 110.704 29.7793 110.645 29.6556C110.588 29.532 110.494 29.4351 110.366 29.365C110.237 29.2937 110.066 29.258 109.853 29.258H109.02V32.7525H108.546ZM112.797 32.7525V28.8374H113.271V32.3319H115.091V32.7525H112.797ZM117.067 32.7525H116.57L118.008 28.8374H118.497L119.935 32.7525H119.438L118.268 29.4568H118.237L117.067 32.7525ZM117.251 31.2232H119.254V31.6437H117.251V31.2232ZM120.643 28.8374H121.186L122.272 30.6649H122.318L123.404 28.8374H123.946L122.532 31.1391V32.7525H122.058V31.1391L120.643 28.8374ZM127.742 32.7525V28.8374H130.105V29.258H128.216V30.5808H129.983V31.0014H128.216V32.3319H130.136V32.7525H127.742ZM131.794 32.7525V28.8374H132.268V32.3319H134.088V32.7525H131.794ZM135.656 32.7525V28.8374H138.019V29.258H136.131V30.5808H137.897V31.0014H136.131V32.3319H138.05V32.7525H135.656ZM139.869 28.8374L141.031 32.1331H141.077L142.239 28.8374H142.736L141.299 32.7525H140.809L139.372 28.8374H139.869ZM144.005 32.7525H143.507L144.945 28.8374H145.434L146.872 32.7525H146.375L145.205 29.4568H145.174L144.005 32.7525ZM144.188 31.2232H146.191V31.6437H144.188V31.2232ZM147.645 29.258V28.8374H150.581V29.258H149.35V32.7525H148.876V29.258H147.645ZM152.147 32.7525V28.8374H154.51V29.258H152.621V30.5808H154.388V31.0014H152.621V32.3319H154.541V32.7525H152.147ZM157.407 32.7525H156.199V28.8374H157.46C157.84 28.8374 158.165 28.9158 158.436 29.0726C158.706 29.228 158.912 29.4517 159.057 29.7435C159.201 30.0341 159.272 30.3821 159.272 30.7873C159.272 31.1952 159.201 31.5462 159.055 31.8406C158.909 32.1337 158.698 32.3593 158.42 32.5173C158.142 32.6741 157.804 32.7525 157.407 32.7525ZM156.673 32.3319H157.376C157.7 32.3319 157.968 32.2694 158.181 32.1446C158.394 32.0197 158.552 31.8419 158.657 31.6112C158.762 31.3805 158.814 31.1059 158.814 30.7873C158.814 30.4712 158.762 30.1992 158.659 29.971C158.556 29.7416 158.402 29.5657 158.197 29.4434C157.992 29.3198 157.736 29.258 157.43 29.258H156.673V32.3319Z" fill="#171717"/>
<path d="M66.03 49.3504C65.5665 49.3504 65.1376 49.2346 64.7436 49.0027C64.3496 48.7709 64.0368 48.458 63.8049 48.0641C63.5731 47.6701 63.4573 47.2412 63.4573 46.7777V45.613H66.1517V46.6386H73.244V44.4484H66.03C65.5665 44.4484 65.1376 44.3325 64.7436 44.1007C64.3496 43.8689 64.0368 43.5618 63.8049 43.1794C63.5731 42.7854 63.4573 42.3508 63.4573 41.8756V39.4072C63.4573 38.9321 63.5731 38.5033 63.8049 38.1209C64.0368 37.7269 64.3496 37.414 64.7436 37.1822C65.1376 36.9504 65.5665 36.8345 66.03 36.8345H73.4005C73.864 36.8345 74.287 36.9504 74.6694 37.1822C75.0634 37.414 75.3763 37.7269 75.6081 38.1209C75.8515 38.5033 75.9732 38.9321 75.9732 39.4072V40.5719H73.244V39.5463H66.1517V41.7366H73.4005C73.864 41.7366 74.287 41.8524 74.6694 42.0842C75.0634 42.3161 75.3763 42.629 75.6081 43.0229C75.8515 43.4054 75.9732 43.8341 75.9732 44.3093V46.7777C75.9732 47.2412 75.8515 47.6701 75.6081 48.0641C75.3763 48.458 75.0634 48.7709 74.6694 49.0027C74.287 49.2346 73.864 49.3504 73.4005 49.3504H66.03ZM80.3732 49.3504C79.8982 49.3504 79.4636 49.2346 79.0695 49.0027C78.6871 48.7709 78.38 48.4639 78.1482 48.0814C77.9165 47.6875 77.8005 47.2529 77.8005 46.7777V39.4072C77.8005 38.9321 77.9165 38.5033 78.1482 38.1209C78.38 37.7269 78.6871 37.414 79.0695 37.1822C79.4636 36.9504 79.8982 36.8345 80.3732 36.8345H90.2816V39.5463H81.0686C80.8832 39.5463 80.7383 39.5926 80.634 39.6854C80.5413 39.7781 80.4949 39.9229 80.4949 40.1199V46.065C80.4949 46.2504 80.5413 46.3953 80.634 46.4996C80.7383 46.5923 80.8832 46.6386 81.0686 46.6386H90.2816V49.3504H80.3732ZM92.0421 49.3504V39.4072C92.0421 38.9321 92.1579 38.5033 92.3897 38.1209C92.6214 37.7269 92.9343 37.414 93.3284 37.1822C93.7224 36.9504 94.1511 36.8345 94.6148 36.8345H101.968C102.443 36.8345 102.872 36.9504 103.254 37.1822C103.648 37.414 103.961 37.7269 104.193 38.1209C104.436 38.5033 104.558 38.9321 104.558 39.4072V49.3504H101.829V45.3175H94.7365V49.3504H92.0421ZM94.7365 42.6057H101.829V39.5463H94.7365V42.6057ZM116.169 49.3504L112.536 45.022H116.064L118.95 48.4291V49.3504H116.169ZM106.452 49.3504V36.8519H116.377C116.853 36.8519 117.281 36.9678 117.664 37.1996C118.058 37.4314 118.371 37.7443 118.602 38.1383C118.846 38.5322 118.967 38.9611 118.967 39.4246V42.6579C118.967 43.1214 118.846 43.5503 118.602 43.9442C118.371 44.3382 118.058 44.6511 117.664 44.8829C117.281 45.1147 116.853 45.2306 116.377 45.2306L109.146 45.248V49.3504H106.452ZM109.146 42.5188H116.238V39.5463H109.146V42.5188ZM120.727 49.3504V36.8171H123.421V46.6386H133.242V49.3504H120.727ZM134.204 49.3504V36.8345H145.763V39.5463H136.933V41.7366H144.043V44.4484H136.933V46.6386H145.763V49.3504H134.204ZM151.667 49.3504V39.5463H146.765V36.8345H159.281V39.5463H154.379V49.3504H151.667Z" fill="#171717"/>
<path d="M63.4573 45.6131V45.2766H63.1208V45.6131H63.4573ZM66.1517 45.6131H66.4881V45.2766H66.1517V45.6131ZM66.1517 46.6387H65.8152V46.9751H66.1517V46.6387ZM73.244 46.6387V46.9751H73.5805V46.6387H73.244ZM73.244 44.4484H73.5805V44.1119H73.244V44.4484ZM63.805 43.1794L63.5149 43.35L63.5161 43.3519L63.5172 43.3538L63.805 43.1794ZM63.805 38.1209L64.0927 38.2953L64.0939 38.2934L64.095 38.2915L63.805 38.1209ZM74.6694 37.1822L74.4951 37.47L74.497 37.4711L74.4989 37.4722L74.6694 37.1822ZM75.6081 38.1209L75.3181 38.2915L75.3211 38.2965L75.3243 38.3016L75.6081 38.1209ZM75.9732 40.5719V40.9084H76.3096V40.5719H75.9732ZM73.244 40.5719H72.9076V40.9084H73.244V40.5719ZM73.244 39.5463H73.5805V39.2099H73.244V39.5463ZM66.1517 39.5463V39.2099H65.8152V39.5463H66.1517ZM66.1517 41.7366H65.8152V42.0731H66.1517V41.7366ZM74.6694 42.0843L74.4951 42.372L74.497 42.3732L74.4989 42.3743L74.6694 42.0843ZM75.6081 43.023L75.3181 43.1935L75.3211 43.1986L75.3243 43.2036L75.6081 43.023ZM75.6081 48.0641L75.3219 47.8873L75.32 47.8904L75.3181 47.8935L75.6081 48.0641ZM74.6694 49.0028L74.4989 48.7128L74.497 48.7139L74.4951 48.715L74.6694 49.0028ZM66.03 49.014C65.6256 49.014 65.2558 48.9137 64.9142 48.7128L64.5731 49.2928C65.0195 49.5554 65.5074 49.6869 66.03 49.6869V49.014ZM64.9142 48.7128C64.5695 48.51 64.2977 48.2382 64.095 47.8935L63.5149 48.2347C63.7757 48.678 64.1297 49.032 64.5731 49.2928L64.9142 48.7128ZM64.095 47.8935C63.894 47.5519 63.7937 47.1821 63.7937 46.7777H63.1208C63.1208 47.3003 63.2523 47.7882 63.5149 48.2347L64.095 47.8935ZM63.7937 46.7777V45.6131H63.1208V46.7777H63.7937ZM63.4573 45.9495H66.1517V45.2766H63.4573V45.9495ZM65.8152 45.6131V46.6387H66.4881V45.6131H65.8152ZM66.1517 46.9751H73.244V46.3022H66.1517V46.9751ZM73.5805 46.6387V44.4484H72.9076V46.6387H73.5805ZM73.244 44.1119H66.03V44.7848H73.244V44.1119ZM66.03 44.1119C65.6256 44.1119 65.2558 44.0117 64.9142 43.8107L64.5731 44.3907C65.0195 44.6534 65.5074 44.7848 66.03 44.7848V44.1119ZM64.9142 43.8107C64.5671 43.6066 64.2949 43.3388 64.0927 43.005L63.5172 43.3538C63.7785 43.7849 64.1321 44.1313 64.5731 44.3907L64.9142 43.8107ZM64.095 43.0088C63.8948 42.6686 63.7937 42.2933 63.7937 41.8757H63.1208C63.1208 42.4084 63.2515 42.9022 63.5149 43.35L64.095 43.0088ZM63.7937 41.8757V39.4073H63.1208V41.8757H63.7937ZM63.7937 39.4073C63.7937 38.9896 63.8948 38.6218 64.0927 38.2953L63.5172 37.9465C63.2516 38.3849 63.1208 38.8747 63.1208 39.4073H63.7937ZM64.095 38.2915C64.2977 37.9467 64.5695 37.675 64.9142 37.4722L64.5731 36.8922C64.1297 37.1529 63.7757 37.507 63.5149 37.9503L64.095 38.2915ZM64.9142 37.4722C65.2558 37.2713 65.6256 37.171 66.03 37.171V36.4981C65.5074 36.4981 65.0195 36.6295 64.5731 36.8922L64.9142 37.4722ZM66.03 37.171H73.4005V36.4981H66.03V37.171ZM73.4005 37.171C73.8049 37.171 74.1672 37.2713 74.4951 37.47L74.8438 36.8944C74.4068 36.6296 73.9232 36.4981 73.4005 36.4981V37.171ZM74.4989 37.4722C74.8436 37.675 75.1154 37.9467 75.3181 38.2915L75.8982 37.9503C75.6374 37.507 75.2834 37.1529 74.84 36.8922L74.4989 37.4722ZM75.3243 38.3016C75.5317 38.6273 75.6367 38.9929 75.6367 39.4073H76.3096C76.3096 38.8714 76.1714 38.3794 75.892 37.9402L75.3243 38.3016ZM75.6367 39.4073V40.5719H76.3096V39.4073H75.6367ZM75.9732 40.2355H73.244V40.9084H75.9732V40.2355ZM73.5805 40.5719V39.5463H72.9076V40.5719H73.5805ZM73.244 39.2099H66.1517V39.8828H73.244V39.2099ZM65.8152 39.5463V41.7366H66.4881V39.5463H65.8152ZM66.1517 42.0731H73.4005V41.4002H66.1517V42.0731ZM73.4005 42.0731C73.8049 42.0731 74.1672 42.1733 74.4951 42.372L74.8438 41.7965C74.4068 41.5317 73.9232 41.4002 73.4005 41.4002V42.0731ZM74.4989 42.3743C74.8436 42.5771 75.1154 42.8488 75.3181 43.1935L75.8982 42.8524C75.6374 42.4091 75.2834 42.055 74.84 41.7942L74.4989 42.3743ZM75.3243 43.2036C75.5317 43.5293 75.6367 43.8949 75.6367 44.3093H76.3096C76.3096 43.7735 76.1714 43.2815 75.892 42.8423L75.3243 43.2036ZM75.6367 44.3093V46.7777H76.3096V44.3093H75.6367ZM75.6367 46.7777C75.6367 47.1789 75.5324 47.5464 75.3219 47.8873L75.8943 48.2408C76.1706 47.7937 76.3096 47.3037 76.3096 46.7777H75.6367ZM75.3181 47.8935C75.1154 48.2382 74.8436 48.51 74.4989 48.7128L74.84 49.2928C75.2834 49.032 75.6374 48.678 75.8982 48.2347L75.3181 47.8935ZM74.4951 48.715C74.1672 48.9137 73.8049 49.014 73.4005 49.014V49.6869C73.9232 49.6869 74.4068 49.5553 74.8438 49.2905L74.4951 48.715ZM73.4005 49.014H66.03V49.6869H73.4005V49.014ZM79.0695 49.0028L78.8951 49.2905L78.897 49.2917L78.8989 49.2928L79.0695 49.0028ZM78.1482 48.0815L77.8583 48.252L77.8594 48.2539L77.8606 48.2559L78.1482 48.0815ZM78.1482 38.1209L78.436 38.2953L78.4371 38.2934L78.4382 38.2915L78.1482 38.1209ZM79.0695 37.1822L78.8989 36.8922L78.897 36.8933L78.8951 36.8944L79.0695 37.1822ZM90.2817 36.8345H90.6181V36.4981H90.2817V36.8345ZM90.2817 39.5463V39.8828H90.6181V39.5463H90.2817ZM80.634 39.6854L80.4105 39.4339L80.4031 39.4405L80.3961 39.4475L80.634 39.6854ZM80.634 46.4996L80.3826 46.7231L80.3957 46.7379L80.4105 46.751L80.634 46.4996ZM90.2817 46.6387H90.6181V46.3022H90.2817V46.6387ZM90.2817 49.3504V49.6869H90.6181V49.3504H90.2817ZM80.3733 49.014C79.9557 49.014 79.5804 48.9129 79.2401 48.7128L78.8989 49.2928C79.3468 49.5562 79.8407 49.6869 80.3733 49.6869V49.014ZM79.2439 48.715C78.9079 48.5113 78.6397 48.2432 78.436 47.9071L77.8606 48.2559C78.1204 48.6846 78.4664 49.0306 78.8951 49.2905L79.2439 48.715ZM78.4382 47.9109C78.2382 47.5706 78.137 47.1954 78.137 46.7777H77.4641C77.4641 47.3104 77.5949 47.8042 77.8583 48.252L78.4382 47.9109ZM78.137 46.7777V39.4073H77.4641V46.7777H78.137ZM78.137 39.4073C78.137 38.9896 78.238 38.6218 78.436 38.2953L77.8606 37.9465C77.5949 38.3849 77.4641 38.8747 77.4641 39.4073H78.137ZM78.4382 38.2915C78.6425 37.9444 78.9103 37.6722 79.2439 37.47L78.8951 36.8944C78.464 37.1557 78.1176 37.5093 77.8583 37.9503L78.4382 38.2915ZM79.2401 37.4722C79.5804 37.272 79.9557 37.171 80.3733 37.171V36.4981C79.8407 36.4981 79.3468 36.6288 78.8989 36.8922L79.2401 37.4722ZM80.3733 37.171H90.2817V36.4981H80.3733V37.171ZM89.9452 36.8345V39.5463H90.6181V36.8345H89.9452ZM90.2817 39.2099H81.0686V39.8828H90.2817V39.2099ZM81.0686 39.2099C80.8284 39.2099 80.5943 39.2705 80.4105 39.4339L80.8575 39.9368C80.8824 39.9147 80.938 39.8828 81.0686 39.8828V39.2099ZM80.3961 39.4475C80.2147 39.6289 80.1585 39.8781 80.1585 40.12H80.8314C80.8314 39.9679 80.868 39.9273 80.872 39.9233L80.3961 39.4475ZM80.1585 40.12V46.065H80.8314V40.12H80.1585ZM80.1585 46.065C80.1585 46.3053 80.2193 46.5394 80.3826 46.7231L80.8856 46.2761C80.8635 46.2512 80.8314 46.1956 80.8314 46.065H80.1585ZM80.4105 46.751C80.5943 46.9144 80.8284 46.9751 81.0686 46.9751V46.3022C80.938 46.3022 80.8824 46.2702 80.8575 46.2482L80.4105 46.751ZM81.0686 46.9751H90.2817V46.3022H81.0686V46.9751ZM89.9452 46.6387V49.3504H90.6181V46.6387H89.9452ZM90.2817 49.014H80.3733V49.6869H90.2817V49.014ZM92.0421 49.3504H91.7056V49.6869H92.0421V49.3504ZM92.3897 38.1209L92.6774 38.2953L92.6785 38.2934L92.6797 38.2915L92.3897 38.1209ZM103.254 37.1822L103.08 37.47L103.082 37.4711L103.084 37.4722L103.254 37.1822ZM104.193 38.1209L103.903 38.2915L103.906 38.2965L103.909 38.3016L104.193 38.1209ZM104.558 49.3504V49.6869H104.894V49.3504H104.558ZM101.829 49.3504H101.492V49.6869H101.829V49.3504ZM101.829 45.3175H102.165V44.9811H101.829V45.3175ZM94.7365 45.3175V44.9811H94.4V45.3175H94.7365ZM94.7365 49.3504V49.6869H95.0729V49.3504H94.7365ZM94.7365 42.6058H94.4V42.9422H94.7365V42.6058ZM101.829 42.6058V42.9422H102.165V42.6058H101.829ZM101.829 39.5463H102.165V39.2099H101.829V39.5463ZM94.7365 39.5463V39.2099H94.4V39.5463H94.7365ZM92.3785 49.3504V39.4073H91.7056V49.3504H92.3785ZM92.3785 39.4073C92.3785 38.9896 92.4796 38.6218 92.6774 38.2953L92.102 37.9465C91.8363 38.3849 91.7056 38.8747 91.7056 39.4073H92.3785ZM92.6797 38.2915C92.8824 37.9467 93.1543 37.675 93.499 37.4722L93.1577 36.8922C92.7144 37.1529 92.3605 37.507 92.0997 37.9503L92.6797 38.2915ZM93.499 37.4722C93.8405 37.2713 94.2103 37.171 94.6148 37.171V36.4981C94.0921 36.4981 93.6043 36.6295 93.1577 36.8922L93.499 37.4722ZM94.6148 37.171H101.968V36.4981H94.6148V37.171ZM101.968 37.171C102.386 37.171 102.753 37.272 103.08 37.47L103.429 36.8944C102.99 36.6289 102.5 36.4981 101.968 36.4981V37.171ZM103.084 37.4722C103.428 37.675 103.7 37.9467 103.903 38.2915L104.483 37.9503C104.222 37.507 103.868 37.1529 103.425 36.8922L103.084 37.4722ZM103.909 38.3016C104.116 38.6273 104.222 38.9929 104.222 39.4073H104.894C104.894 38.8714 104.756 38.3794 104.477 37.9402L103.909 38.3016ZM104.222 39.4073V49.3504H104.894V39.4073H104.222ZM104.558 49.014H101.829V49.6869H104.558V49.014ZM102.165 49.3504V45.3175H101.492V49.3504H102.165ZM101.829 44.9811H94.7365V45.654H101.829V44.9811ZM94.4 45.3175V49.3504H95.0729V45.3175H94.4ZM94.7365 49.014H92.0421V49.6869H94.7365V49.014ZM94.7365 42.9422H101.829V42.2693H94.7365V42.9422ZM102.165 42.6058V39.5463H101.492V42.6058H102.165ZM101.829 39.2099H94.7365V39.8828H101.829V39.2099ZM94.4 39.5463V42.6058H95.0729V39.5463H94.4ZM116.169 49.3504L115.911 49.5668L116.012 49.6869H116.169V49.3504ZM112.536 45.022V44.6856H111.814L112.278 45.2384L112.536 45.022ZM116.065 45.022L116.321 44.8046L116.22 44.6856H116.065V45.022ZM118.95 48.4291H119.287V48.3058L119.207 48.2117L118.95 48.4291ZM118.95 49.3504V49.6869H119.287V49.3504H118.95ZM106.452 49.3504H106.115V49.6869H106.452V49.3504ZM106.452 36.8519V36.5155H106.115V36.8519H106.452ZM117.664 37.1996L117.489 37.4874L117.491 37.4885L117.493 37.4896L117.664 37.1996ZM118.602 38.1383L118.312 38.3089L118.314 38.312L118.316 38.315L118.602 38.1383ZM118.602 43.9443L118.316 43.7675L118.314 43.7705L118.312 43.7737L118.602 43.9443ZM117.664 44.883L117.493 44.5929L117.491 44.5941L117.489 44.5952L117.664 44.883ZM116.377 45.2306V44.8942H116.377L116.377 45.2306ZM109.146 45.248L109.145 44.9116L108.81 44.9123V45.248H109.146ZM109.146 49.3504V49.6869H109.482V49.3504H109.146ZM109.146 42.5188H108.81V42.8553H109.146V42.5188ZM116.238 42.5188V42.8553H116.575V42.5188H116.238ZM116.238 39.5463H116.575V39.2099H116.238V39.5463ZM109.146 39.5463V39.2099H108.81V39.5463H109.146ZM116.427 49.1341L112.793 44.8057L112.278 45.2384L115.911 49.5668L116.427 49.1341ZM112.536 45.3585H116.065V44.6856H112.536V45.3585ZM115.808 45.2395L118.693 48.6466L119.207 48.2117L116.321 44.8046L115.808 45.2395ZM118.614 48.4291V49.3504H119.287V48.4291H118.614ZM118.95 49.014H116.169V49.6869H118.95V49.014ZM106.788 49.3504V36.8519H106.115V49.3504H106.788ZM106.452 37.1884H116.377V36.5155H106.452V37.1884ZM116.377 37.1884C116.795 37.1884 117.163 37.2894 117.489 37.4874L117.838 36.9118C117.4 36.6462 116.91 36.5155 116.377 36.5155V37.1884ZM117.493 37.4896C117.838 37.6924 118.11 37.9641 118.312 38.3089L118.892 37.9677C118.632 37.5244 118.278 37.1703 117.834 36.9096L117.493 37.4896ZM118.316 38.315C118.527 38.656 118.631 39.0235 118.631 39.4246H119.304C119.304 38.8987 119.165 38.4087 118.889 37.9615L118.316 38.315ZM118.631 39.4246V42.6579H119.304V39.4246H118.631ZM118.631 42.6579C118.631 43.0591 118.527 43.4266 118.316 43.7675L118.889 44.121C119.165 43.6739 119.304 43.1839 119.304 42.6579H118.631ZM118.312 43.7737C118.11 44.1184 117.838 44.3902 117.493 44.5929L117.834 45.173C118.278 44.9122 118.632 44.5582 118.892 44.1148L118.312 43.7737ZM117.489 44.5952C117.163 44.7931 116.795 44.8942 116.377 44.8942V45.5671C116.91 45.5671 117.4 45.4363 117.838 45.1707L117.489 44.5952ZM116.377 44.8942L109.145 44.9116L109.147 45.5845L116.378 45.5671L116.377 44.8942ZM108.81 45.248V49.3504H109.482V45.248H108.81ZM109.146 49.014H106.452V49.6869H109.146V49.014ZM109.146 42.8553H116.238V42.1824H109.146V42.8553ZM116.575 42.5188V39.5463H115.902V42.5188H116.575ZM116.238 39.2099H109.146V39.8828H116.238V39.2099ZM108.81 39.5463V42.5188H109.482V39.5463H108.81ZM120.727 49.3504H120.39V49.6869H120.727V49.3504ZM120.727 36.8172V36.4807H120.39V36.8172H120.727ZM123.421 36.8172H123.757V36.4807H123.421V36.8172ZM123.421 46.6387H123.085V46.9751H123.421V46.6387ZM133.242 46.6387H133.579V46.3022H133.242V46.6387ZM133.242 49.3504V49.6869H133.579V49.3504H133.242ZM121.063 49.3504V36.8172H120.39V49.3504H121.063ZM120.727 37.1536H123.421V36.4807H120.727V37.1536ZM123.085 36.8172V46.6387H123.757V36.8172H123.085ZM123.421 46.9751H133.242V46.3022H123.421V46.9751ZM132.906 46.6387V49.3504H133.579V46.6387H132.906ZM133.242 49.014H120.727V49.6869H133.242V49.014ZM134.204 49.3504H133.867V49.6869H134.204V49.3504ZM134.204 36.8345V36.4981H133.867V36.8345H134.204ZM145.764 36.8345H146.1V36.4981H145.764V36.8345ZM145.764 39.5463V39.8828H146.1V39.5463H145.764ZM136.933 39.5463V39.2099H136.596V39.5463H136.933ZM136.933 41.7366H136.596V42.0731H136.933V41.7366ZM144.043 41.7366H144.379V41.4002H144.043V41.7366ZM144.043 44.4484V44.7848H144.379V44.4484H144.043ZM136.933 44.4484V44.1119H136.596V44.4484H136.933ZM136.933 46.6387H136.596V46.9751H136.933V46.6387ZM145.764 46.6387H146.1V46.3022H145.764V46.6387ZM145.764 49.3504V49.6869H146.1V49.3504H145.764ZM134.54 49.3504V36.8345H133.867V49.3504H134.54ZM134.204 37.171H145.764V36.4981H134.204V37.171ZM145.427 36.8345V39.5463H146.1V36.8345H145.427ZM145.764 39.2099H136.933V39.8828H145.764V39.2099ZM136.596 39.5463V41.7366H137.269V39.5463H136.596ZM136.933 42.0731H144.043V41.4002H136.933V42.0731ZM143.706 41.7366V44.4484H144.379V41.7366H143.706ZM144.043 44.1119H136.933V44.7848H144.043V44.1119ZM136.596 44.4484V46.6387H137.269V44.4484H136.596ZM136.933 46.9751H145.764V46.3022H136.933V46.9751ZM145.427 46.6387V49.3504H146.1V46.6387H145.427ZM145.764 49.014H134.204V49.6869H145.764V49.014ZM151.667 49.3504H151.331V49.6869H151.667V49.3504ZM151.667 39.5463H152.004V39.2099H151.667V39.5463ZM146.765 39.5463H146.429V39.8828H146.765V39.5463ZM146.765 36.8345V36.4981H146.429V36.8345H146.765ZM159.281 36.8345H159.618V36.4981H159.281V36.8345ZM159.281 39.5463V39.8828H159.618V39.5463H159.281ZM154.379 39.5463V39.2099H154.043V39.5463H154.379ZM154.379 49.3504V49.6869H154.715V49.3504H154.379ZM152.004 49.3504V39.5463H151.331V49.3504H152.004ZM151.667 39.2099H146.765V39.8828H151.667V39.2099ZM147.102 39.5463V36.8345H146.429V39.5463H147.102ZM146.765 37.171H159.281V36.4981H146.765V37.171ZM158.945 36.8345V39.5463H159.618V36.8345H158.945ZM159.281 39.2099H154.379V39.8828H159.281V39.2099ZM154.043 39.5463V49.3504H154.715V39.5463H154.043ZM154.379 49.014H151.667V49.6869H154.379V49.014Z" fill="#171717"/>
</g>
<defs>
<clipPath id="clip0_115_363">
<rect width="114.28" height="36" fill="white" transform="translate(45.3594 17.5)"/>
</clipPath>
</defs>
</svg>
