<svg width="204" height="72" viewBox="0 0 204 72" fill="none" xmlns="http://www.w3.org/2000/svg">
<rect width="204" height="72" fill="#FAFAFA"/>
<path fill-rule="evenodd" clip-rule="evenodd" d="M139.494 45.5189L134.811 37.3392C136.885 36.3502 138.206 34.2651 138.208 31.9756C138.208 28.6841 135.518 26.0063 132.212 26.0063H122.197V45.5183H126.651V37.9448H130.196L134.531 45.5189H139.494ZM126.578 34.1779V29.7819H131.378L131.359 29.7894C132.82 29.8676 133.751 30.7108 133.751 31.9843C133.751 33.2439 132.754 34.1265 131.267 34.1791H126.578L126.578 34.1779ZM104.009 45.5189V26.006H118.651V29.729H108.583V33.6327H117.411V37.4387H108.583V41.601H119.15V45.5186H104.01L104.009 45.5189ZM83.1261 45.5189L78.4436 37.3392C80.5174 36.3502 81.8381 34.2648 81.8399 31.9756C81.8399 28.6841 79.1503 26.0063 75.8449 26.0063H65.8293V45.5183H70.2835V37.9448H73.8293L78.1639 45.5189H83.1261ZM70.2092 34.1779V29.7819H75.0098L74.9911 29.7894C76.4522 29.8676 77.3839 30.7108 77.3839 31.9843C77.3839 33.2439 76.3861 34.1265 74.899 34.1791H70.2092V34.1779ZM53.9606 45.9997C59.3187 45.9997 62.5187 42.9322 62.5187 37.7947V26.0201H57.9452V37.4901C57.9452 40.268 56.4929 41.8611 53.9609 41.8611H53.9582C51.4262 41.8611 49.9748 40.2683 49.9748 37.4901V26.0201H45.3992V37.7953C45.3992 42.9322 48.5992 46 53.9582 46H53.9603L53.9606 45.9997ZM39.4174 34.7116C42.0566 35.6077 43.3431 37.8435 43.3431 39.9992C43.3431 43.0363 40.8664 45.509 37.8186 45.5186H27V26.0042H36.9642C39.5578 26.0283 41.6492 28.1272 41.6522 30.7102C41.6555 32.3394 40.8096 33.854 39.4174 34.7107V34.7113V34.7116ZM31.4899 41.8777H36.4904C38.0623 41.8777 38.8847 40.7104 38.8847 39.5566C38.8847 38.6271 38.1424 37.3181 36.4904 37.3181H31.4899V41.8777ZM35.1513 33.6784C36.3029 33.6784 37.2062 32.7929 37.2062 31.6619C37.2062 30.5686 36.2636 29.6454 35.1504 29.6454H31.4896V33.6781H35.151L35.1513 33.6784ZM97.6104 34.7038C100.249 35.5987 101.535 37.8344 101.535 39.9893C101.535 43.0258 99.0588 45.496 96.0122 45.5065L85.1982 45.5059V26.0003L95.157 26C97.7503 26.0244 99.8407 28.123 99.8438 30.7051C99.8468 32.3337 99.0015 33.8474 97.6098 34.7032L97.6104 34.7038ZM89.6862 41.8671H94.6843C96.2557 41.8671 97.0777 40.7004 97.0777 39.5469C97.0777 38.6181 96.3348 37.3094 94.6843 37.3094H89.6862V41.8671ZM93.3453 33.6712C94.4977 33.6712 95.401 32.7859 95.401 31.6556C95.401 30.5629 94.4588 29.64 93.3453 29.64H89.6862V33.6712H93.3453ZM158.875 45.5189L154.192 37.3392C156.266 36.3502 157.587 34.2648 157.588 31.9756C157.588 28.6841 154.899 26.0063 151.594 26.0063H141.578V45.5183H146.033V37.9448H149.578L153.913 45.5189H158.875H158.875ZM145.958 34.1779V29.7819H150.759L150.74 29.7894C152.201 29.8676 153.133 30.7108 153.133 31.9843C153.133 33.2439 152.135 34.1265 150.648 34.1791H145.958V34.1779ZM165.383 45.5189V37.5677L157.608 26.006H163.319L167.794 32.7144L172.289 26.006H178L170.207 37.5677V45.5189H165.382H165.383Z" fill="#171717"/>
</svg>
